<svg id="_1_basic_logo_ignatius-ondark" data-name="1 basic/logo/ignatius-ondark" xmlns="http://www.w3.org/2000/svg" xmlns:xlink="http://www.w3.org/1999/xlink" width="162.721" height="36" viewBox="0 0 162.721 36">
  <defs>
    <clipPath id="clip-path">
      <path id="Clip_2" data-name="Clip 2" d="M1.761,0A1.761,1.761,0,0,0,0,1.761H0V34.239A1.761,1.761,0,0,0,1.761,36h0a1.762,1.762,0,0,0,1.762-1.762h0V1.762A1.762,1.762,0,0,0,1.761,0Z" fill="none"/>
    </clipPath>
    <linearGradient id="linear-gradient" x1="0.5" y1="0.998" x2="0.5" y2="0.02" gradientUnits="objectBoundingBox">
      <stop offset="0" stop-color="#f94242"/>
      <stop offset="1" stop-color="#fdc318"/>
    </linearGradient>
    <clipPath id="clip-path-2">
      <path id="Clip_5" data-name="Clip 5" d="M0,1.761V19.578a1.761,1.761,0,0,0,1.761,1.761h0a1.761,1.761,0,0,0,1.761-1.761h0V1.761A1.761,1.761,0,0,0,1.761,0h0A1.761,1.761,0,0,0,0,1.761" fill="none"/>
    </clipPath>
    <linearGradient id="linear-gradient-2" x1="0.5" y1="1.003" x2="0.5" y2="0.099" xlink:href="#linear-gradient"/>
    <clipPath id="clip-path-3">
      <path id="Clip_8" data-name="Clip 8" d="M0,1.761V17.6a1.761,1.761,0,0,0,1.761,1.761h0A1.761,1.761,0,0,0,3.522,17.6h0V1.761A1.761,1.761,0,0,0,1.761,0h0A1.761,1.761,0,0,0,0,1.761" fill="none"/>
    </clipPath>
    <linearGradient id="linear-gradient-3" x1="0.5" y1="0.968" x2="0.5" y2="0.061" xlink:href="#linear-gradient"/>
    <clipPath id="clip-path-4">
      <path id="Clip_11" data-name="Clip 11" d="M1.76,22.826A1.762,1.762,0,0,1,0,21.066V7.206a1.761,1.761,0,1,1,3.522,0V21.066A1.763,1.763,0,0,1,1.76,22.826Zm0-19.3A1.761,1.761,0,1,1,3.522,1.761,1.763,1.763,0,0,1,1.762,3.522Z" fill="none"/>
    </clipPath>
    <linearGradient id="linear-gradient-4" x1="0.5" y1="0.996" x2="0.5" y2="0.031" xlink:href="#linear-gradient"/>
    <clipPath id="clip-path-5">
      <path id="Clip_14" data-name="Clip 14" d="M1.762,12.582A1.764,1.764,0,0,1,0,10.819V6.664a1.761,1.761,0,1,1,3.523,0v4.156A1.763,1.763,0,0,1,1.762,12.582Zm0-9.06A1.761,1.761,0,1,1,3.523,1.761,1.763,1.763,0,0,1,1.762,3.522Z" fill="none"/>
    </clipPath>
    <linearGradient id="linear-gradient-5" x1="0.5" y1="0.981" x2="0.5" y2="0.052" xlink:href="#linear-gradient"/>
    <clipPath id="clip-path-6">
      <path id="Clip_17" data-name="Clip 17" d="M1.762,30.459A1.764,1.764,0,0,1,0,28.7V7.022a1.762,1.762,0,0,1,3.523,0V28.7A1.763,1.763,0,0,1,1.762,30.459Zm0-26.937A1.761,1.761,0,1,1,3.523,1.761,1.763,1.763,0,0,1,1.762,3.522Z" fill="none"/>
    </clipPath>
    <linearGradient id="linear-gradient-6" x1="0.5" y1="0.999" x2="0.5" y2="0.047" xlink:href="#linear-gradient"/>
    <clipPath id="clip-path-7">
      <path id="Clip_20" data-name="Clip 20" d="M1.761,16.107A1.763,1.763,0,0,1,0,14.346v-7.3a1.761,1.761,0,0,1,3.522,0v7.3A1.763,1.763,0,0,1,1.761,16.107Zm0-12.586A1.761,1.761,0,1,1,3.522,1.761,1.763,1.763,0,0,1,1.761,3.522Z" fill="none"/>
    </clipPath>
    <linearGradient id="linear-gradient-7" x1="0.5" y1="0.986" x2="0.5" y2="0.041" xlink:href="#linear-gradient"/>
    <clipPath id="clip-path-8">
      <path id="Clip_23" data-name="Clip 23" d="M0,0H112.033V30.231H0Z" fill="none"/>
    </clipPath>
  </defs>
  <g id="Group_3" data-name="Group 3" transform="translate(16.671)">
    <path id="Clip_2-2" data-name="Clip 2" d="M1.761,0A1.761,1.761,0,0,0,0,1.761H0V34.239A1.761,1.761,0,0,0,1.761,36h0a1.762,1.762,0,0,0,1.762-1.762h0V1.762A1.762,1.762,0,0,0,1.761,0Z" fill="none"/>
    <g id="Group_3-2" data-name="Group 3" clip-path="url(#clip-path)">
      <path id="Fill_1" data-name="Fill 1" d="M1.761,0A1.761,1.761,0,0,0,0,1.761H0V34.239A1.761,1.761,0,0,0,1.761,36h0a1.762,1.762,0,0,0,1.762-1.762h0V1.762A1.762,1.762,0,0,0,1.761,0Z" fill="url(#linear-gradient)"/>
    </g>
  </g>
  <g id="Group_6" data-name="Group 6" transform="translate(27.784 9.678)">
    <path id="Clip_5-2" data-name="Clip 5" d="M0,1.761V19.578a1.761,1.761,0,0,0,1.761,1.761h0a1.761,1.761,0,0,0,1.761-1.761h0V1.761A1.761,1.761,0,0,0,1.761,0h0A1.761,1.761,0,0,0,0,1.761" fill="none"/>
    <g id="Group_6-2" data-name="Group 6" clip-path="url(#clip-path-2)">
      <path id="Fill_4" data-name="Fill 4" d="M0,1.761V19.578a1.761,1.761,0,0,0,1.761,1.761h0a1.761,1.761,0,0,0,1.761-1.761h0V1.761A1.761,1.761,0,0,0,1.761,0h0A1.761,1.761,0,0,0,0,1.761" fill="url(#linear-gradient-2)"/>
    </g>
  </g>
  <g id="Group_9" data-name="Group 9" transform="translate(5.558 11.627)">
    <path id="Clip_8-2" data-name="Clip 8" d="M0,1.761V17.6a1.761,1.761,0,0,0,1.761,1.761h0A1.761,1.761,0,0,0,3.522,17.6h0V1.761A1.761,1.761,0,0,0,1.761,0h0A1.761,1.761,0,0,0,0,1.761" fill="none"/>
    <g id="Group_9-2" data-name="Group 9" clip-path="url(#clip-path-3)">
      <path id="Fill_7" data-name="Fill 7" d="M0,1.761V17.6a1.761,1.761,0,0,0,1.761,1.761h0A1.761,1.761,0,0,0,3.522,17.6h0V1.761A1.761,1.761,0,0,0,1.761,0h0A1.761,1.761,0,0,0,0,1.761" fill="url(#linear-gradient-3)"/>
    </g>
  </g>
  <g id="Group_12" data-name="Group 12" transform="translate(22.227 10.664)">
    <path id="Clip_11-2" data-name="Clip 11" d="M1.76,22.826A1.762,1.762,0,0,1,0,21.066V7.206a1.761,1.761,0,1,1,3.522,0V21.066A1.763,1.763,0,0,1,1.76,22.826Zm0-19.3A1.761,1.761,0,1,1,3.522,1.761,1.763,1.763,0,0,1,1.762,3.522Z" transform="translate(0 0)" fill="none"/>
    <g id="Group_12-2" data-name="Group 12" transform="translate(0 0)" clip-path="url(#clip-path-4)">
      <path id="Fill_10" data-name="Fill 10" d="M1.76,22.826A1.762,1.762,0,0,1,0,21.066V7.206a1.761,1.761,0,1,1,3.522,0V21.066A1.763,1.763,0,0,1,1.76,22.826Zm0-19.3A1.761,1.761,0,1,1,3.522,1.761,1.763,1.763,0,0,1,1.762,3.522Z" fill="url(#linear-gradient-4)"/>
    </g>
  </g>
  <g id="Group_15" data-name="Group 15" transform="translate(0 15.95)">
    <path id="Clip_14-2" data-name="Clip 14" d="M1.762,12.582A1.764,1.764,0,0,1,0,10.819V6.664a1.761,1.761,0,1,1,3.523,0v4.156A1.763,1.763,0,0,1,1.762,12.582Zm0-9.06A1.761,1.761,0,1,1,3.523,1.761,1.763,1.763,0,0,1,1.762,3.522Z" transform="translate(0 0)" fill="none"/>
    <g id="Group_15-2" data-name="Group 15" transform="translate(0 0)" clip-path="url(#clip-path-5)">
      <path id="Fill_13" data-name="Fill 13" d="M1.762,12.582A1.764,1.764,0,0,1,0,10.819V6.664a1.761,1.761,0,1,1,3.523,0v4.156A1.763,1.763,0,0,1,1.762,12.582Zm0-9.06A1.761,1.761,0,1,1,3.523,1.761,1.763,1.763,0,0,1,1.762,3.522Z" fill="url(#linear-gradient-5)"/>
    </g>
  </g>
  <g id="Group_18" data-name="Group 18" transform="translate(11.114 3.061)">
    <path id="Clip_17-2" data-name="Clip 17" d="M1.762,30.459A1.764,1.764,0,0,1,0,28.7V7.022a1.762,1.762,0,0,1,3.523,0V28.7A1.763,1.763,0,0,1,1.762,30.459Zm0-26.937A1.761,1.761,0,1,1,3.523,1.761,1.763,1.763,0,0,1,1.762,3.522Z" transform="translate(0 0)" fill="none"/>
    <g id="Group_18-2" data-name="Group 18" transform="translate(0 0)" clip-path="url(#clip-path-6)">
      <path id="Fill_16" data-name="Fill 16" d="M1.762,30.459A1.764,1.764,0,0,1,0,28.7V7.022a1.762,1.762,0,0,1,3.523,0V28.7A1.763,1.763,0,0,1,1.762,30.459Zm0-26.937A1.761,1.761,0,1,1,3.523,1.761,1.763,1.763,0,0,1,1.762,3.522Z" fill="url(#linear-gradient-6)"/>
    </g>
  </g>
  <g id="Group_21" data-name="Group 21" transform="translate(33.341 12.424)">
    <path id="Clip_20-2" data-name="Clip 20" d="M1.761,16.107A1.763,1.763,0,0,1,0,14.346v-7.3a1.761,1.761,0,0,1,3.522,0v7.3A1.763,1.763,0,0,1,1.761,16.107Zm0-12.586A1.761,1.761,0,1,1,3.522,1.761,1.763,1.763,0,0,1,1.761,3.522Z" transform="translate(0 0)" fill="none"/>
    <g id="Group_21-2" data-name="Group 21" transform="translate(0 0)" clip-path="url(#clip-path-7)">
      <path id="Fill_19" data-name="Fill 19" d="M1.761,16.107A1.763,1.763,0,0,1,0,14.346v-7.3a1.761,1.761,0,0,1,3.522,0v7.3A1.763,1.763,0,0,1,1.761,16.107Zm0-12.586A1.761,1.761,0,1,1,3.522,1.761,1.763,1.763,0,0,1,1.761,3.522Z" fill="url(#linear-gradient-7)"/>
    </g>
  </g>
  <g id="Group_31" data-name="Group 31" transform="translate(50.688 5.53)">
    <path id="Clip_23-2" data-name="Clip 23" d="M0,0H112.033V30.231H0Z" transform="translate(0)" fill="none"/>
    <g id="Group_31-2" data-name="Group 31" transform="translate(0)" clip-path="url(#clip-path-8)">
      <path id="Fill_22" data-name="Fill 22" d="M5.132,23H.376V7.6H5.132ZM2.754,5.445a2.751,2.751,0,0,1-1.94-.8A2.683,2.683,0,0,1,.814.8,2.758,2.758,0,0,1,4.694.8a2.683,2.683,0,0,1,0,3.849A2.751,2.751,0,0,1,2.754,5.445Z" transform="translate(0 0)"/>
      <path id="Fill_24" data-name="Fill 24" d="M7.355,22.97A12.577,12.577,0,0,1,2.1,21.844V17.337A9.716,9.716,0,0,0,7.073,18.9c2.386,0,3.755-1.266,3.755-3.474v-.845l-.062-.031a6.441,6.441,0,0,1-3.6,1.033,7.136,7.136,0,0,1-2.691-.523,7,7,0,0,1-2.289-1.5A7.084,7.084,0,0,1,.6,11.188,8.223,8.223,0,0,1,0,8.043,8.118,8.118,0,0,1,2.21,2.331,7.461,7.461,0,0,1,4.74.623,8.543,8.543,0,0,1,8.012,0a8.735,8.735,0,0,1,3.849.876L15.585.219V15.429a8.381,8.381,0,0,1-.6,3.225,6.414,6.414,0,0,1-1.678,2.365A8.814,8.814,0,0,1,7.355,22.97ZM8.481,4.037A3.553,3.553,0,0,0,4.82,7.855a3.531,3.531,0,0,0,3.6,3.849,4.761,4.761,0,0,0,2.41-.657V4.6A5.429,5.429,0,0,0,8.481,4.037Z" transform="translate(7.604 7.261)"/>
      <path id="Fill_25" data-name="Fill 25" d="M0,.344H4.694V1.752l.062.031A7.539,7.539,0,0,1,9.513,0,5.545,5.545,0,0,1,13.55,1.565c.939,1,1.346,2.347,1.346,4.569v9.608H10.139V6.916a3.051,3.051,0,0,0-.532-2.159A2.039,2.039,0,0,0,7.98,4.1,5.489,5.489,0,0,0,4.757,5.383V15.741H0Z" transform="translate(26.569 7.261)"/>
      <path id="Fill_26" data-name="Fill 26" d="M5.383,16.085a6.26,6.26,0,0,1-3.568-1A4.19,4.19,0,0,1,0,11.485,4.666,4.666,0,0,1,.528,9.271a4.266,4.266,0,0,1,1.35-1.51,5.944,5.944,0,0,1,2.007-.853A10.164,10.164,0,0,1,6.2,6.666a12.3,12.3,0,0,1,2.66.282V6.353a2.186,2.186,0,0,0-.594-1.627,3.573,3.573,0,0,0-2.378-.657,9.615,9.615,0,0,0-4.507,1.22v-4.1A12.15,12.15,0,0,1,6.76,0,10.808,10.808,0,0,1,9.643.36a6.077,6.077,0,0,1,2.249,1.111,4.264,4.264,0,0,1,1.3,1.753,6.585,6.585,0,0,1,.427,2.5v5.226c0,.787.333,1.22.938,1.22a1.788,1.788,0,0,0,.783-.188v3.567a5.174,5.174,0,0,1-2.285.47A4.548,4.548,0,0,1,9.733,14.8H9.67A7.482,7.482,0,0,1,5.383,16.085Zm1.784-6.6c-.734,0-2.441.152-2.441,1.565,0,.932.774,1.533,1.972,1.533a4.269,4.269,0,0,0,2.159-.626V9.7A6.263,6.263,0,0,0,7.167,9.483Z" transform="translate(43.718 7.261)"/>
      <path id="Fill_27" data-name="Fill 27" d="M11.328,19.716a7.092,7.092,0,0,1-3.474.845,5.423,5.423,0,0,1-4.006-1.534c-.814-.876-1.346-2.159-1.346-4.6V8.763H0V4.82H2.5V.814L7.26,0V4.82h4.068V8.763H7.26v5.163c0,1.5.344,2.629,1.784,2.629a5.513,5.513,0,0,0,2.284-.626Z" transform="translate(59.553 2.785)"/>
      <path id="Fill_28" data-name="Fill 28" d="M5.132,23H.376V7.6H5.132ZM2.754,5.445a2.751,2.751,0,0,1-1.94-.8A2.683,2.683,0,0,1,.814.8,2.758,2.758,0,0,1,4.694.8a2.683,2.683,0,0,1,0,3.849A2.751,2.751,0,0,1,2.754,5.445Z" transform="translate(72.727 0)"/>
      <path id="Fill_29" data-name="Fill 29" d="M10.17,13.926a6.933,6.933,0,0,1-4.694,1.815A5.412,5.412,0,0,1,1.47,14.208C.469,13.175,0,11.767,0,9.482V0H4.756V8.763a3.1,3.1,0,0,0,.595,2.222,2.2,2.2,0,0,0,1.69.688A4.818,4.818,0,0,0,10.17,10.3V0h4.757V15.4H10.233v-1.44Z" transform="translate(81.177 7.605)"/>
      <path id="Fill_30" data-name="Fill 30" d="M.5,10.64a13.159,13.159,0,0,0,6.071,1.784c1.314,0,2.1-.344,2.1-1.189,0-1.189-1.721-1.064-4.037-1.659C1.721,8.856,0,7.636,0,5.1.031,1.846,2.91,0,6.728,0a14.376,14.376,0,0,1,5.883,1.22v4.1a12.964,12.964,0,0,0-5.79-1.659c-1.252,0-2,.375-2,1.1,0,1.127,1.659,1.033,3.943,1.6,2.942.72,4.725,1.846,4.725,4.506-.031,3.38-2.973,5.226-6.916,5.226A14.613,14.613,0,0,1,.5,14.8Z" transform="translate(98.545 7.261)"/>
    </g>
  </g>
</svg>
